<?xml version="1.0" encoding="UTF-8" standalone="no"?>
<!-- Created with Inkscape (http://www.inkscape.org/) -->

<svg
   width="512.0px"
   height="512.0px"
   viewBox="0 0 512.0 512.0"
   version="1.1"
   id="SVGRoot"
   sodipodi:docname="kevinbot-papirus.svg"
   xml:space="preserve"
   inkscape:version="1.2 (dc2aedaf03, 2022-05-15)"
   xmlns:inkscape="http://www.inkscape.org/namespaces/inkscape"
   xmlns:sodipodi="http://sodipodi.sourceforge.net/DTD/sodipodi-0.dtd"
   xmlns="http://www.w3.org/2000/svg"
   xmlns:svg="http://www.w3.org/2000/svg"><sodipodi:namedview
     id="namedview1418"
     pagecolor="#000000"
     bordercolor="#000000"
     borderopacity="0.25"
     inkscape:showpageshadow="2"
     inkscape:pageopacity="0"
     inkscape:pagecheckerboard="0"
     inkscape:deskcolor="#d1d1d1"
     inkscape:document-units="px"
     showgrid="true"
     inkscape:zoom="2.5045944"
     inkscape:cx="106.60409"
     inkscape:cy="184.06174"
     inkscape:window-width="1920"
     inkscape:window-height="1011"
     inkscape:window-x="0"
     inkscape:window-y="0"
     inkscape:window-maximized="1"
     inkscape:current-layer="g10708"><inkscape:grid
       type="xygrid"
       id="grid1904" /></sodipodi:namedview><defs
     id="defs1413"><inkscape:path-effect
       effect="spiro"
       id="path-effect4571"
       is_visible="true"
       lpeversion="1" /><inkscape:path-effect
       effect="fillet_chamfer"
       id="path-effect4298"
       is_visible="true"
       lpeversion="1"
       nodesatellites_param="F,0,0,1,0,4,0,1 @ F,0,0,1,0,4,0,1 @ F,0,0,1,0,4,0,1 @ F,0,0,1,0,4,0,1 @ F,0,0,1,0,4,0,1 @ F,0,0,1,0,4,0,1 @ F,0,0,1,0,4,0,1 @ F,0,0,1,0,4,0,1 @ F,0,0,1,0,4,0,1 @ F,0,0,1,0,4,0,1 @ F,0,0,1,0,4,0,1 @ F,0,0,1,0,4,0,1 @ F,0,0,1,0,4,0,1 @ F,0,0,1,0,4,0,1 @ F,0,0,1,0,4,0,1 @ F,0,0,1,0,4,0,1"
       unit="px"
       method="auto"
       mode="F"
       radius="4"
       chamfer_steps="1"
       flexible="false"
       use_knot_distance="true"
       apply_no_radius="true"
       apply_with_radius="true"
       only_selected="false"
       hide_knots="false" /><inkscape:path-effect
       effect="fillet_chamfer"
       id="path-effect4069"
       is_visible="true"
       lpeversion="1"
       nodesatellites_param="F,0,0,1,0,12,0,1 @ F,0,0,1,0,12,0,1 @ F,0,0,1,0,12,0,1 @ F,0,0,1,0,12,0,1"
       unit="px"
       method="auto"
       mode="F"
       radius="12"
       chamfer_steps="1"
       flexible="false"
       use_knot_distance="true"
       apply_no_radius="true"
       apply_with_radius="true"
       only_selected="false"
       hide_knots="false" /></defs><g
     inkscape:label="Layer 1"
     inkscape:groupmode="layer"
     id="layer1"><g
       id="g10708"><g
         id="g10735"
         transform="matrix(1.009448,0,0,1.009448,-2.4229035,-2.5441957)"><g
           id="g10721"><rect
             style="fill:#e4e4e4;fill-opacity:1;stroke:none;stroke-width:12.0855;stroke-linecap:butt;stroke-linejoin:round;stroke-miterlimit:4;stroke-dasharray:none;stroke-opacity:1;paint-order:normal"
             id="rect7631-6-8"
             width="32.287079"
             height="57.724228"
             x="113.24359"
             y="60.969616" /><rect
             style="fill:#e4e4e4;fill-opacity:1;stroke:none;stroke-width:10.3649;stroke-linecap:butt;stroke-linejoin:round;stroke-miterlimit:4;stroke-dasharray:none;stroke-opacity:1;paint-order:normal"
             id="rect7631-0"
             width="23.748579"
             height="57.724228"
             x="366.78143"
             y="67.055489" /><path
             id="rect4379-9"
             style="fill:none;stroke:#e4e4e4;stroke-width:33.2649;stroke-linecap:butt;stroke-linejoin:round;stroke-dasharray:none;stroke-opacity:1;paint-order:normal"
             d="m 156.50624,185.06605 h 199.0313 l -4.7e-4,257.24448 v 46.01892 -46.01892 l -74.63627,4.8e-4 -124.39408,-4.8e-4 v 50.19575 l -33.54457,-0.0187 v -50.17704 h 33.54457 z M 141.19331,46.06173 H 370.8259 c 6.8894,0 12.47435,5.584964 12.47435,12.47435 l 0.2505,9.823562 h 22.16335 v 50.936918 h -22.1638 v 23.68621 32.17529 c 0,6.88938 -5.835,9.05744 -12.7244,9.05744 H 141.19331 c -6.8894,0 -12.47435,-5.58496 -12.47435,-12.47435 l 1e-4,-53.48412 H 106.32968 V 68.594576 l 22.50114,7.2e-5 -0.11176,-10.630298 c -0.0725,-6.889023 5.58485,-11.90262 12.47425,-11.90262 z"
             sodipodi:nodetypes="ccccccccccccssccccccsssccccccs" /><path
             style="fill:#e4e4e4;fill-opacity:1;stroke:#e4e4e4;stroke-width:5;stroke-linecap:butt;stroke-linejoin:round;stroke-miterlimit:4;stroke-dasharray:none;stroke-opacity:1"
             d="m 359.05239,191.02403 c 6.80155,0.73191 9.88726,2.94424 15.18508,7.27204 5.29782,4.32779 10.52761,9.89714 12.60188,16.41589 21.16644,34.41687 36.50864,61.40865 63.17657,82.15439 1.98349,1.44327 1.9282,1.46365 5.51036,3.16011 32.09754,5.41091 52.75804,28.37534 48.68027,50.20574 -0.55597,2.41403 -1.3082,4.89362 -3.00298,6.70037 -3.98021,2.10943 -6.96166,0.50266 -9.21486,-3.63066 -6.47037,-7.97048 -12.20205,-13.76415 -20.48843,-18.16808 -4.87397,-1.77916 -9.20572,1.18656 -10.0956,6.60965 -1.50716,5.90068 3.14453,11.66765 8.1729,14.08056 4.8272,2.40943 11.12262,4.74492 9.27543,9.62817 -0.43832,1.14795 -2.8936,4.25307 -6.04695,4.22674 -12.36272,0.50637 -26.54131,-1.51501 -33.39181,-10.93342 -21.93303,-25.52583 -32.46164,-37.38447 -41.64262,-58.49616 -11.00052,-14.85791 -20.20002,-19.4998 -30.91138,-27.76386 -17.9417,-14.05678 -8.50342,-62.81351 -7.80786,-81.46145 z"
             id="path4569"
             sodipodi:nodetypes="sscccccccccccccccs" /><path
             style="fill:#e4e4e4;fill-opacity:1;stroke:#e4e4e4;stroke-width:5;stroke-linecap:butt;stroke-linejoin:round;stroke-miterlimit:4;stroke-dasharray:none;stroke-opacity:1"
             d="m 153.83988,191.02403 c -6.80155,0.73191 -9.88726,2.94424 -15.18508,7.27204 -5.29782,4.32779 -10.52761,9.89714 -12.60188,16.41589 -21.16644,34.41687 -36.508636,61.40865 -63.176561,82.15439 -1.983493,1.44327 -1.928201,1.46365 -5.510356,3.16011 -32.097552,5.41091 -52.7580475,28.37534 -48.6802758,50.20574 0.555961,2.41403 1.3081955,4.89362 3.0029698,6.70037 3.980212,2.10943 6.961665,0.50266 9.214866,-3.63066 6.470372,-7.97048 12.202044,-13.76415 20.488422,-18.16808 4.873978,-1.77916 9.205727,1.18656 10.095606,6.60965 1.50716,5.90068 -3.144535,11.66765 -8.172904,14.08056 -4.827198,2.40943 -11.122619,4.74492 -9.275427,9.62817 0.438317,1.14795 2.893602,4.25307 6.046952,4.22674 12.362714,0.50637 26.541319,-1.51501 33.391816,-10.93342 21.933025,-25.52583 32.461632,-37.38447 41.642612,-58.49616 11.00052,-14.85791 20.20002,-19.4998 30.91138,-27.76386 17.9417,-14.05678 8.50342,-62.81351 7.80786,-81.46145 z"
             id="path4569-3"
             sodipodi:nodetypes="sscccccccccccccccs" /><path
             id="rect4379"
             style="fill:none;stroke:#e4e4e4;stroke-width:16.6325;stroke-linecap:butt;stroke-linejoin:round;stroke-dasharray:none;stroke-opacity:1;paint-order:normal"
             d="m 156.93049,185.06604 h 199.0313 l -4.7e-4,257.24448 v 46.01892 -46.01892 l -74.63627,4.8e-4 -124.39408,-4.8e-4 v 50.19575 l -33.54457,-0.0187 v -50.17704 h 33.54457 z M 141.61756,46.061729 h 229.63259 c 6.8894,0 12.47435,5.584957 12.47435,12.47435 l 0.2505,9.823553 h 22.16335 v 50.936928 h -22.1638 v 23.68621 32.17528 c 0,6.88938 -5.835,9.05744 -12.7244,9.05744 H 141.61756 c -6.8894,0 -12.47435,-5.58496 -12.47435,-12.47435 l 1e-4,-53.48411 H 106.75393 V 68.594565 l 22.50114,8.1e-5 -0.11176,-10.630307 c -0.0725,-6.889013 5.58485,-11.90261 12.47425,-11.90261 z"
             sodipodi:nodetypes="ccccccccccccssccccccsssccccccs" /><rect
             style="fill:#e4e4e4;fill-opacity:1;stroke:none;stroke-width:5;stroke-linecap:butt;stroke-linejoin:round;stroke-miterlimit:4;stroke-dasharray:none;stroke-opacity:1;paint-order:normal"
             id="rect7629"
             width="29.361469"
             height="45.982883"
             x="125.69151"
             y="445.93842" /><rect
             style="fill:#e4e4e4;fill-opacity:1;stroke:none;stroke-width:5;stroke-linecap:butt;stroke-linejoin:round;stroke-miterlimit:4;stroke-dasharray:none;stroke-opacity:1;paint-order:normal"
             id="rect7631"
             width="23.88801"
             height="57.724228"
             x="375.31747"
             y="69.651169" /><rect
             style="fill:#e4e4e4;fill-opacity:1;stroke:none;stroke-width:5;stroke-linecap:butt;stroke-linejoin:round;stroke-miterlimit:4;stroke-dasharray:none;stroke-opacity:1;paint-order:normal"
             id="rect7631-6"
             width="23.88801"
             height="57.724228"
             x="113.20639"
             y="62.009647" /><g
             aria-label="3"
             id="text7728"
             style="font-size:261.333px;fill:#e4e4e4;stroke:#e4e4e4;stroke-width:2;stroke-linecap:round;stroke-linejoin:round;stroke-dasharray:none;stroke-opacity:1"
             transform="matrix(1.0395292,0,0,1.0395292,-9.0975982,-10.64459)"></g></g></g></g></g></svg>
